<svg width="67" height="70" viewBox="0 0 67 70" fill="none" xmlns="http://www.w3.org/2000/svg">
<ellipse cx="34.2762" cy="9.94281" rx="8.64411" ry="9.84749" transform="rotate(0.635808 34.2762 9.94281)" fill="#26895D"/>
<ellipse cx="15.396" cy="19.3931" rx="15.396" ry="19.3931" transform="matrix(0.984645 -0.17457 0.180321 0.983608 17.0115 15.3104)" fill="white"/>
<ellipse cx="12.8105" cy="19.1383" rx="8.6487" ry="9.53402" transform="rotate(-37.049 12.8105 19.1383)" fill="#26895D"/>
<ellipse cx="17.0273" cy="20.935" rx="17.0273" ry="20.935" transform="matrix(0.88683 -0.462096 0.548002 0.836477 2.61377 26.9368)" fill="white"/>
<path d="M1.2854 47.6921C1.2854 45.6049 1.85679 44.5184 2.94328 43.6892L36.3391 57.4705C34.6522 62.6171 36.0577 67.2602 37.7402 68.564L3.62995 52.9816C2.66253 52.2245 1.2854 50.3512 1.2854 47.6921Z" fill="#F5F5F5"/>
<path fill-rule="evenodd" clip-rule="evenodd" d="M2.1634 42.6675C2.52691 42.39 3.01053 42.3267 3.43329 42.5011L36.8292 56.2825C37.4509 56.539 37.7697 57.2316 37.5602 57.8707C36.7845 60.237 36.7266 62.4692 37.0411 64.2326C37.368 66.0655 38.0518 67.1797 38.5272 67.5486C39.043 67.9483 39.1773 68.6705 38.8397 69.2289C38.502 69.7874 37.7994 70.0046 37.2059 69.7334L3.09567 54.1505C3.00378 54.1085 2.91722 54.0558 2.83767 53.9936C1.59876 53.024 0 50.7942 0 47.692C0 46.538 0.156855 45.5538 0.529493 44.7031C0.910612 43.8331 1.47924 43.1896 2.1634 42.6675ZM3.62972 52.9815C2.66231 52.2244 1.28518 50.351 1.28518 47.692C1.28518 45.6048 1.85657 44.5183 2.94305 43.6891L36.3389 57.4704C35.1665 61.0474 35.4879 64.3812 36.3577 66.5198C36.7394 67.458 37.2268 68.1668 37.7399 68.5639L3.62972 52.9815Z" fill="#26895D"/>
<path d="M65.6174 30.5629L33.3139 18.0706L2.77722 43.8123L37.8565 58.5759L65.6174 30.5629Z" fill="#26895D"/>
<path fill-rule="evenodd" clip-rule="evenodd" d="M32.4853 17.0879C32.8442 16.7853 33.3395 16.7025 33.7773 16.8718L66.0805 29.3641C66.4847 29.5205 66.7829 29.8702 66.8735 30.2943C66.9641 30.7183 66.8349 31.1594 66.5297 31.4674L38.7692 59.4803C38.3999 59.853 37.8413 59.9637 37.3578 59.7602L2.27847 44.9966C1.86619 44.8231 1.57374 44.4477 1.50647 44.0054C1.43919 43.5632 1.60665 43.1178 1.9487 42.8295L32.4853 17.0879ZM33.3137 18.0704L65.6172 30.5628L37.8564 58.5757L2.77699 43.8121L33.3137 18.0704Z" fill="#26895D"/>
<path d="M47.147 33.4961L33.0226 27.9492L30.3113 30.2756L44.3164 36.1408L47.147 33.4961ZM65.5891 40.1435C62.5008 37.6274 63.0727 33.5959 65.4458 30.6223L36.5677 57.8991C34.7951 62.1593 36.2336 66.2783 37.7688 68.5498L65.5891 40.1435Z" fill="#F5F5F5"/>
<path fill-rule="evenodd" clip-rule="evenodd" d="M66.3157 29.6765C66.8124 30.1333 66.8709 30.8965 66.45 31.4239C65.3974 32.7427 64.7966 34.2347 64.7535 35.595C64.7124 36.9119 65.1847 38.1565 66.4005 39.1471C66.6807 39.3753 66.8516 39.7107 66.8715 40.0714C66.8921 40.432 66.7597 40.7846 66.5065 41.0426L38.6869 69.4487C38.4168 69.7243 38.0371 69.8644 37.6527 69.8297C37.2684 69.7944 36.92 69.5887 36.7039 69.2694C35.0161 66.7723 33.389 62.1927 35.381 57.4053C35.4503 57.2387 35.5539 57.0886 35.6851 56.9647L64.5633 29.688C65.0536 29.2246 65.8189 29.2196 66.3157 29.6765ZM65.4456 30.6222L36.5675 57.899C35.0619 61.5176 35.873 65.0343 37.0922 67.4033C37.3084 67.8235 37.5375 68.2072 37.7687 68.5497L65.5889 40.1434C65.2715 39.8851 64.9932 39.6108 64.751 39.3233C63.4677 37.798 63.2139 35.9015 63.6888 34.0497C63.9959 32.8509 64.609 31.6708 65.4456 30.6222Z" fill="#26895D"/>
<path fill-rule="evenodd" clip-rule="evenodd" d="M63.7914 39.8115C64.0382 40.0664 64.0318 40.4733 63.7767 40.7201L44.1054 59.7623C43.8504 60.0092 43.4436 60.0026 43.1968 59.7476C42.95 59.4925 42.9565 59.0858 43.2116 58.8389L62.8828 39.7967C63.1379 39.5499 63.5447 39.5564 63.7914 39.8115ZM62.6573 38.2202C62.8982 38.4803 62.8835 38.8869 62.6232 39.1283L49.9283 50.9081C49.6682 51.1496 49.2616 51.1344 49.0202 50.8742C48.7788 50.6141 48.794 50.2075 49.0541 49.9661L61.7487 38.1862C62.0089 37.9448 62.4157 37.96 62.6573 38.2202ZM8.23717 51.265C8.37616 50.9385 8.75355 50.7864 9.08005 50.9254L21.3225 56.1361C21.649 56.2751 21.8011 56.6525 21.6621 56.9791C21.5231 57.3056 21.1457 57.4577 20.8192 57.3187L8.57677 52.1079C8.25021 51.969 8.09818 51.5916 8.23717 51.265Z" fill="#26895D"/>
</svg>
